<svg width="44" height="45" viewBox="0 0 44 45" fill="none" xmlns="http://www.w3.org/2000/svg">
<g clip-path="url(#clip0_3_55)">
<path d="M30.7613 30.8522L29.8186 31.7514L27.0205 28.6831L26.027 27.5933L26.9698 26.6941L27.9632 27.784L30.7613 30.8522Z" fill="#78909C"/>
<path d="M27.9632 27.784C27.8128 27.9396 27.6581 28.0925 27.5009 28.2428C27.3436 28.3931 27.1829 28.5407 27.0205 28.6822L26.027 27.5924L26.9724 26.6933L27.9632 27.784ZM30.9126 30.9964C30.7622 31.152 30.6075 31.3049 30.4502 31.4552C30.293 31.6055 30.1323 31.7531 29.9699 31.8946L28.9764 30.8048L29.9217 29.9057L30.9126 30.9964Z" fill="#465E66"/>
<path d="M31.8751 16.5419C31.7658 19.6865 30.7478 22.7275 28.9496 25.2807C27.1514 27.834 24.6538 29.7849 21.772 30.8872C18.8903 31.9896 15.7538 32.1938 12.7587 31.474C9.7636 30.7543 7.0442 29.143 4.94399 26.8436C2.12938 23.7566 0.628872 19.6527 0.772464 15.4345C0.916057 11.2162 2.69199 7.22898 5.70969 4.34971C11.9831 -1.63564 21.8505 -1.28496 27.7028 5.13281C29.1014 6.65785 30.1903 8.45149 30.9065 10.4099C31.6227 12.3683 31.9519 14.4525 31.8751 16.5419Z" fill="#546E7A"/>
<path d="M28.9687 16.4443C28.8549 19.7942 27.4745 22.9681 25.1181 25.2978C22.7617 27.6274 19.6132 28.9308 16.3359 28.9336C16.1863 28.9336 16.0359 28.931 15.8847 28.9257C15.0989 28.898 14.3173 28.7965 13.5498 28.6225C12.0883 28.2902 10.697 27.6925 9.44196 26.8576C8.57459 26.2793 7.77926 25.5952 7.07352 24.8203C4.81103 22.3063 3.61266 18.9791 3.73994 15.5647C3.86721 12.1504 5.30979 8.92615 7.75287 6.59558C10.1959 4.26501 13.4412 3.01733 16.7804 3.1248C20.1196 3.23227 23.2818 4.68618 25.5767 7.16924C26.0825 7.72348 26.5403 8.32163 26.9449 8.95694C27.762 10.2394 28.3474 11.6614 28.6731 13.1555C28.9078 14.2345 29.0072 15.3397 28.9687 16.4443Z" fill="#90CAF9"/>
<path d="M20.509 9.06679C18.4643 7.87993 16.0424 7.57207 13.7758 8.21088C11.5093 8.8497 9.58348 10.3829 8.42188 12.4734" stroke="white" stroke-width="15" stroke-linecap="round" stroke-linejoin="round"/>
<path d="M42.3861 44.1721C41.8541 44.6815 41.1521 44.9644 40.4233 44.9631H40.321C39.9438 44.9509 39.5726 44.8625 39.229 44.7029C38.8853 44.5433 38.5759 44.3157 38.3187 44.0332L27.7329 32.8403L31.9438 28.8211L42.5279 40.0078C43.0478 40.5799 43.3248 41.3394 43.2983 42.1199C43.2717 42.9004 42.9437 43.6384 42.3861 44.1721Z" fill="#5E35B1"/>
<path d="M42.7608 43.7361C42.4947 44.1163 42.1439 44.4262 41.7374 44.6402C41.3309 44.8541 40.8805 44.966 40.4233 44.9666H40.321C39.9435 44.954 39.5722 44.865 39.2285 44.7048C38.8849 44.5446 38.5756 44.3163 38.3187 44.0332L27.7329 32.8403L28.4153 32.1891L38.9787 43.3564C39.2358 43.6391 39.5452 43.8669 39.8889 44.0266C40.2325 44.1864 40.6037 44.2749 40.981 44.2872H41.0833C41.6852 44.2887 42.2723 44.0958 42.7608 43.7361Z" fill="#4A2A96"/>
<path d="M31.8845 30.1465L41.8524 40.3409" stroke="white" stroke-width="3" stroke-linecap="round" stroke-linejoin="round"/>
<path d="M26.2848 6.49336C23.8154 3.81501 20.4096 2.24533 16.812 2.12736C13.2143 2.00938 9.71722 3.35271 7.08505 5.86375C4.45288 8.3748 2.89964 11.8494 2.76479 15.5281C2.62994 19.2069 3.92444 22.7906 6.36538 25.4962C7.58227 26.8377 9.04723 27.9189 10.6755 28.6775C12.3037 29.436 14.0629 29.8568 15.8512 29.9153C16.0136 29.9215 16.1751 29.9241 16.3367 29.9241C18.9891 29.9217 21.5831 29.1272 23.8003 27.6383C26.0174 26.1494 27.7612 24.0307 28.8177 21.5425C29.8741 19.0543 30.1972 16.3047 29.7473 13.6313C29.2973 10.958 28.0939 8.47713 26.2848 6.49336ZM28.9687 16.4443C28.8549 19.7942 27.4744 22.9681 25.1181 25.2978C22.7617 27.6274 19.6132 28.9308 16.3358 28.9336C16.1863 28.9336 16.0359 28.931 15.8847 28.9257C13.3849 28.8348 10.9676 27.9883 8.93792 26.4931C6.90829 24.9979 5.35741 22.9211 4.48117 20.5251C3.60492 18.129 3.44262 15.5211 4.01475 13.0307C4.58688 10.5403 5.86779 8.27919 7.69569 6.53291C9.52537 4.7872 11.8202 3.63562 14.2898 3.22383C16.7595 2.81203 19.293 3.15852 21.5701 4.21945C23.8472 5.28039 25.7656 7.00813 27.0825 9.18416C28.3994 11.3602 29.0558 13.8868 28.9687 16.4443Z" fill="#546E7A"/>
<path d="M26.2848 6.49336C23.8154 3.81501 20.4096 2.24533 16.812 2.12736C13.2143 2.00938 9.71722 3.35271 7.08505 5.86375C4.45288 8.3748 2.89964 11.8494 2.76479 15.5281C2.62994 19.2069 3.92444 22.7906 6.36538 25.4962C7.58227 26.8377 9.04723 27.9189 10.6755 28.6775C12.3037 29.436 14.0629 29.8568 15.8512 29.9153C16.0136 29.9215 16.1751 29.9241 16.3367 29.9241C18.9891 29.9217 21.5831 29.1272 23.8003 27.6383C26.0174 26.1494 27.7612 24.0307 28.8177 21.5425C29.8741 19.0543 30.1972 16.3047 29.7473 13.6313C29.2973 10.958 28.0939 8.47713 26.2848 6.49336ZM28.9687 16.4443C28.8549 19.7942 27.4744 22.9681 25.1181 25.2978C22.7617 27.6274 19.6132 28.9308 16.3358 28.9336C16.1863 28.9336 16.0359 28.931 15.8847 28.9257C13.3849 28.8348 10.9676 27.9883 8.93792 26.4931C6.90829 24.9979 5.35741 22.9211 4.48117 20.5251C3.60492 18.129 3.44262 15.5211 4.01475 13.0307C4.58688 10.5403 5.86779 8.27919 7.69569 6.53291C9.52537 4.7872 11.8202 3.63562 14.2898 3.22383C16.7595 2.81203 19.293 3.15852 21.5701 4.21945C23.8472 5.28039 25.7656 7.00813 27.0825 9.18416C28.3994 11.3602 29.0558 13.8868 28.9687 16.4443Z" fill="#465E66"/>
</g>
<defs>
<clipPath id="clip0_3_55">
<rect width="44" height="45" fill="white"/>
</clipPath>
</defs>
</svg>
